<svg width="181" height="28" viewBox="0 0 181 28" fill="none" xmlns="http://www.w3.org/2000/svg">
<g id="Asset 1 1" clip-path="url(#clip0_5739_2)">
<g id="Layer 1">
<g id="Group">
<path id="Vector" d="M74.671 5.64082C73.5479 4.26252 72.2589 3.17774 70.8423 2.43754C69.1833 1.56972 67.3072 1.12305 65.2653 1.12305C61.7302 1.12305 58.6673 2.41202 56.1532 4.95167C53.6391 7.49132 52.3756 10.5925 52.3756 14.1659C52.3756 17.7393 53.6391 20.9553 56.1277 23.5077C58.6163 26.0601 61.6664 27.3491 65.176 27.3491C67.1541 27.3491 69.0046 26.928 70.6764 26.1112C72.1313 25.3965 73.4586 24.3628 74.671 23.0483V26.7238H78.372V1.74839H74.671V5.64082ZM72.1696 7.50409C73.9563 9.32906 74.8752 11.639 74.8752 14.3701C74.8752 16.1568 74.4668 17.7903 73.6755 19.2069C72.8843 20.6235 71.7229 21.7721 70.2425 22.6016C67.2945 24.2607 63.7594 24.2862 60.8879 22.6016C59.4586 21.7593 58.2972 20.5725 57.4549 19.0538C56.5999 17.5351 56.1787 15.9271 56.1787 14.2807C56.1787 12.6344 56.5999 11.0009 57.4549 9.50773C58.2972 8.01457 59.4458 6.8277 60.8624 6.01092C62.2917 5.18139 63.8615 4.76024 65.5461 4.76024C68.1623 4.76024 70.3957 5.69187 72.1951 7.51685L72.1696 7.50409Z" fill="white"/>
<path id="Vector_2" d="M102.952 2.55247C101.497 1.59531 99.8122 1.11035 97.9362 1.11035C96.0602 1.11035 94.3756 1.54426 92.8186 2.38656C91.4786 3.114 90.2279 4.17325 89.0921 5.53879V1.74846H85.3528V26.7238H89.0921V17.4841C89.0921 14.3063 89.2452 12.0985 89.526 10.9244C89.9854 9.1377 90.9553 7.63177 92.3975 6.41938C93.8396 5.21974 95.4859 4.60716 97.2981 4.60716C98.8806 4.60716 100.17 4.99002 101.139 5.76851C102.109 6.53424 102.773 7.70835 103.13 9.23979C103.36 10.1587 103.475 12.0219 103.475 14.7913V26.7238H107.214V13.8724C107.214 10.5288 106.87 8.0274 106.18 6.43214C105.491 4.81135 104.407 3.50962 102.939 2.55247H102.952Z" fill="white"/>
<path id="Vector_3" d="M110.673 1.74854V5.10496H123.805L110.022 26.7239H129.624V23.342H116.518L130.326 1.74854H110.673Z" fill="white"/>
<path id="Vector_4" d="M157.854 14.4722C157.829 11.0902 156.897 8.21876 155.098 5.95987C152.571 2.74383 149.138 1.12305 144.901 1.12305C140.664 1.12305 137.46 2.71831 134.997 5.85778C133.07 8.32086 132.088 11.1668 132.088 14.3063C132.088 17.6499 133.249 20.6873 135.521 23.3418C137.805 26.0091 141.021 27.3619 145.079 27.3619C146.904 27.3619 148.563 27.0811 150.005 26.5196C151.46 25.9581 152.775 25.1413 153.936 24.0693C155.098 22.9972 156.131 21.5934 157.012 19.8578L157.152 19.5898L153.987 17.9307L153.847 18.1732C152.915 19.7302 152.035 20.866 151.243 21.5551C150.452 22.2443 149.482 22.8058 148.346 23.2142C147.211 23.6354 146.024 23.8395 144.824 23.8395C142.348 23.8395 140.242 22.959 138.558 21.2106C136.937 19.526 136.057 17.3564 135.942 14.7657H157.867V14.4594L157.854 14.4722ZM136.337 11.4603C136.963 9.46945 137.843 7.96352 138.979 6.94255C140.638 5.46215 142.642 4.70919 144.952 4.70919C146.356 4.70919 147.708 5.00272 148.972 5.60254C150.235 6.18959 151.269 6.98084 152.035 7.938C152.749 8.83134 153.311 10.0055 153.706 11.4603H136.337Z" fill="white"/>
<path id="Vector_5" d="M174.917 1.97817C173.896 1.40388 172.901 1.11035 171.995 1.11035C170.795 1.11035 169.621 1.48045 168.511 2.20789C167.63 2.78218 166.762 3.61172 165.958 4.67097V1.74846H162.155V26.7238H165.958V18.1733C165.958 13.9873 166.15 11.1796 166.532 9.82685C167.017 8.09121 167.732 6.78948 168.664 5.9727C169.57 5.16869 170.527 4.76031 171.484 4.76031C171.892 4.76031 172.403 4.90069 173.028 5.15593L173.271 5.25803L175.211 2.11856L174.93 1.96541L174.917 1.97817Z" fill="white"/>
<g id="Group 55003">
<path id="Vector_6" opacity="0.75" d="M22.257 14.3191C24.301 14.3191 25.958 12.6564 25.958 10.6054C25.958 8.55431 24.301 6.8916 22.257 6.8916C20.213 6.8916 18.556 8.55431 18.556 10.6054C18.556 12.6564 20.213 14.3191 22.257 14.3191Z" fill="white"/>
<path id="Vector_7" d="M32.9389 14.3196C34.9829 14.3196 36.6399 12.6569 36.6399 10.6059C36.6399 8.5548 34.9829 6.89209 32.9389 6.89209C30.8949 6.89209 29.2379 8.5548 29.2379 10.6059C29.2379 12.6569 30.8949 14.3196 32.9389 14.3196Z" fill="white"/>
<path id="Vector_8" opacity="0.5" d="M11.5625 14.3191C13.6065 14.3191 15.2635 12.6564 15.2635 10.6054C15.2635 8.55431 13.6065 6.8916 11.5625 6.8916C9.51845 6.8916 7.86145 8.55431 7.86145 10.6054C7.86145 12.6564 9.51845 14.3191 11.5625 14.3191Z" fill="white"/>
<path id="Vector_9" d="M22.1167 28C21.7211 28 21.3254 27.8086 21.083 27.464L19.5005 25.2434C19.4239 25.1285 16.9353 21.1978 13.4895 21.1978H10.567C4.73473 21.1978 0 16.4503 0 10.6053C0 4.76026 4.73473 0 10.567 0H34.3555C40.1878 0 44.9225 4.76026 44.9225 10.6053C44.9225 16.4503 40.1878 21.2106 34.3555 21.2106H24.6946C23.9927 21.2106 23.4184 20.6363 23.4184 19.9344C23.4184 19.2325 23.9927 18.6582 24.6946 18.6582H34.3555C38.784 18.6582 42.3829 15.0465 42.3829 10.6053C42.3829 6.16408 38.784 2.55242 34.3555 2.55242H10.567C6.13856 2.55242 2.55242 6.16408 2.55242 10.6053C2.55242 15.0465 6.15132 18.6582 10.567 18.6582H13.4895C18.3646 18.6582 21.4786 23.6226 21.619 23.8396L23.1504 25.9836C23.5588 26.5579 23.4312 27.3619 22.8569 27.7703C22.6272 27.9362 22.3719 28.0128 22.1167 28.0128V28Z" fill="white"/>
</g>
<g id="Group_2">
<path id="Vector_10" d="M173.858 26.7236V22.6908H172.352V22.1548H175.976V22.6908H174.47V26.7236H173.871H173.858Z" fill="white"/>
<path id="Vector_11" d="M176.563 26.7236V22.1548H177.47L178.554 25.3836C178.656 25.6899 178.72 25.9068 178.771 26.06C178.822 25.8941 178.899 25.6516 179.014 25.3325L180.111 22.1548H180.928V26.7236H180.341V22.895L179.014 26.7236H178.465L177.138 22.8312V26.7236H176.551H176.563Z" fill="white"/>
</g>
</g>
</g>
</g>
<defs>
<clipPath id="clip0_5739_2">
<rect width="180.928" height="28" fill="white"/>
</clipPath>
</defs>
</svg>
