<svg width="11" height="13" viewBox="0 0 11 13" fill="none" xmlns="http://www.w3.org/2000/svg">
<g id="Vector">
<path d="M0 6.2207C0 5.3501 0.696286 4.64433 1.5552 4.64433C2.41411 4.64433 3.11039 5.3501 3.11039 6.2207C3.11039 7.09131 2.41411 7.79708 1.5552 7.79708C0.696286 7.79708 0 7.09131 0 6.2207Z" fill="#212336"/>
<path fill-rule="evenodd" clip-rule="evenodd" d="M3.46788 0.572175C3.94841 0.103546 4.7275 0.103546 5.20803 0.572175L11 6.2207L5.20803 11.8692C4.7275 12.3379 3.94841 12.3379 3.46788 11.8692C2.98735 11.4006 2.98735 10.6408 3.46788 10.1722L7.5197 6.2207L3.46788 2.26923C2.98735 1.8006 2.98735 1.0408 3.46788 0.572175Z" fill="#212336"/>
</g>
</svg>
