<svg width="17" height="16" viewBox="0 0 17 16" fill="none" xmlns="http://www.w3.org/2000/svg">
<path id="Vector" d="M3.81164 16H0.333374V5.09091H3.81164V16ZM2.0732 3.63636C1.11111 3.63636 0.333374 2.82109 0.333374 1.81745C0.333374 0.813818 1.1125 0 2.0732 0C3.03181 0 3.81164 0.815273 3.81164 1.81745C3.81164 2.82109 3.03181 3.63636 2.0732 3.63636ZM16.3334 16H12.9894V10.6909C12.9894 9.42473 12.9664 7.79636 11.2509 7.79636C9.50972 7.79636 9.2419 9.17527 9.2419 10.5993V16H5.89859V5.08291H9.10833V6.57455H9.15355C9.60016 5.71636 10.6916 4.81164 12.3195 4.81164C15.7073 4.81164 16.3334 7.07273 16.3334 10.0124V16Z" fill="#8D99AE"/>
</svg>
